<svg xmlns="http://www.w3.org/2000/svg" width="192" height="192" fill="none" viewBox="0 0 192 192"><g stroke="teal" stroke-linecap="round" stroke-linejoin="round" stroke-miterlimit="1.5" clip-path="url(#WOW1L6GOHJa)"><path stroke-width="2.0013" d="M158.161 128.315c6.606-4.44 5.24-17.765 5.24-17.688"/><path stroke-width="2.0007" d="M110.631 42.386c7.727-5.194 6.13-20.78 6.13-20.69"/><path stroke-width="3.0019" d="M145.228 98.226c-3.036.053-8.73.902-11.653 5.971-1.864 3.233-2.041 7.676-1.192 11.121.737 2.988 1.802 6.337 3.448 8.96 3.153 5.022 8.885 8.337 14.357 4.639.803-.543 1.921-1.668 2.569-2.417 5.273-6.099 5.295-14.333 4.526-18.227-.739-3.747-2.351-10.218-12.055-10.047" clip-rule="evenodd"/><path stroke-width="3.0011" d="M96.36 7.45c-3.552.062-10.212 1.055-13.632 6.985-2.18 3.782-2.387 8.979-1.394 13.009.862 3.495 2.108 7.413 4.034 10.48 3.687 5.875 10.392 9.753 16.793 5.428.94-.636 2.248-1.952 3.005-2.828 6.17-7.135 6.195-16.766 5.296-21.321-.865-4.383-2.751-11.953-14.102-11.754" clip-rule="evenodd"/><path stroke-width="2.0006" d="M21.602 163.953c3.383.01 4.502.06 12.997.021"/><path stroke-width="2.9987" d="M48.42 98.313c-3.042.053-8.746.904-11.675 5.983-1.867 3.238-2.045 7.69-1.194 11.141.738 2.994 1.805 6.349 3.455 8.977 3.158 5.031 8.9 8.352 14.383 4.647.805-.544 1.925-1.671 2.573-2.421 5.284-6.111 5.305-14.36 4.536-18.261-.74-3.754-2.356-10.237-12.078-10.066" clip-rule="evenodd"/><path stroke-width="3.0004" d="M139.417 128.656c-1.554 3.847-2.908 4.186-5.386 4.808-1.327.332-2.976.746-5.151 1.821-7.272 3.596-9.282 10.051-9.613 15.09m32.237-22.081c.772 5.724 5.786 6.19 8.196 6.414.458.043.822.077 1.045.136 13.095 3.501 9.581 23.189 9.151 23.185-2.108-.024-7.264-.058-13.504-.1-8.945-.059-20.119-.133-27.739-.212"/><path stroke-width="3.002" d="M89.561 43.046c-2.79 6.91-5.03 4.147-12.326 7.755C61.92 58.374 66.56 76.79 66.681 76.853c.433.219 50.14.46 58.534.553.503.005 4.614-23.026-10.704-27.121-1.633-.436-9.736.307-10.811-7.662"/><path stroke-width="2.0003" d="M137.816 135.084c2.289 1.542 4.845 2.736 7.269 2.801 3.031.081 5.921-.937 7.752-2.13"/><path stroke-width="2.0013" d="M87.689 50.566c2.677 1.803 5.667 3.2 8.502 3.276 3.546.094 6.926-1.096 9.069-2.492"/><path stroke-width="2.9985" d="M42.299 128.622c-1.587 3.928-2.97 4.275-5.5 4.909-1.355.34-3.04.762-5.26 1.86-13.369 6.61-9.32 22.686-9.213 22.741.267.135 21.985.279 37.303.381l5.826.039m-10.815-30.3c.789 5.845 5.908 6.321 8.37 6.55.467.043.839.078 1.066.139 7.885 2.108 9.873 9.963 10.086 16.054"/><path stroke-width="1.999" d="M40.664 135.186c2.337 1.574 4.947 2.793 7.422 2.859 3.095.083 6.045-.956 7.916-2.174"/><path stroke-width="2.9999" d="M89.119 141.631c-3.304 8.179-5.954 4.909-14.592 9.18-18.131 8.965-12.64 30.768-12.495 30.842.513.259 59.357.544 69.295.654.595.007 5.462-27.259-12.672-32.106-1.933-.517-11.526.363-12.798-9.071"/><path stroke-width="1.9979" d="M86.902 150.533c3.17 2.135 6.71 3.788 10.066 3.878 4.197.112 8.199-1.298 10.735-2.95"/><path stroke-width="2.0001" d="M90.867 174.967c-.382.05 32.534.02 34.167.01m-50.332-.002c4.616.014 8.091.041 10.123.041"/><path stroke-width="3.0001" d="M96.947 100.044c-4.15.073-11.931 1.233-15.927 8.162-2.547 4.417-2.788 10.489-1.628 15.197 1.007 4.084 2.463 8.662 4.713 12.246 4.308 6.862 12.141 11.393 19.62 6.34 1.098-.743 2.626-2.28 3.51-3.304 7.208-8.335 7.237-19.588 6.187-24.91-1.01-5.12-3.213-13.964-16.475-13.731" clip-rule="evenodd"/><path stroke-width="2.0001" d="M78.469 8.477c-2.82 4.116-6.265 11.374-2.994 19.366"/><path stroke-width="2" d="M79.924 82.27c-4.45 4.45-9.71 9.07-15.568 11.61m31.935-12.143c-.117 2.11.042 9.069.023 11.732m16.575-10.822c2.825 4.474 9.445 9.334 15.02 10.807"/></g><defs><clipPath id="WOW1L6GOHJa"><path fill="#fff" d="M0 0h192v192H0z"/></clipPath></defs></svg>